<svg xmlns="http://www.w3.org/2000/svg" width="16" height="16" viewBox="0 0 16 16" fill="none">
  <mask id="mask0_3_201" style="mask-type:alpha" maskUnits="userSpaceOnUse" x="0" y="0" width="16" height="16">
    <rect width="16" height="16" fill="#D9D9D9"/>
  </mask>
  <g mask="url(#mask0_3_201)">
    <path d="M12.627 13.35L8.87439 9.59741C8.50772 9.88374 8.1105 10.0963 7.68272 10.2352C7.25494 10.3741 6.82054 10.4436 6.37952 10.4436C5.24008 10.4436 4.27018 10.049 3.46982 9.26C2.66946 8.47095 2.26929 7.50686 2.26929 6.36771C2.26929 5.22856 2.66936 4.25855 3.46952 3.4577C4.26968 2.65685 5.23933 2.25643 6.37849 2.25643C7.51763 2.25643 8.48208 2.65661 9.27182 3.45697C10.0616 4.25732 10.4564 5.22722 10.4564 6.36666C10.4564 6.82051 10.3876 7.26132 10.25 7.6891C10.1124 8.11688 9.89916 8.50213 9.61027 8.84486L13.3795 12.6308C13.4829 12.7324 13.5319 12.8518 13.5263 12.989C13.5207 13.1263 13.4658 13.247 13.3615 13.3514C13.2547 13.4581 13.1325 13.5115 12.9949 13.5115C12.8573 13.5115 12.7347 13.4577 12.627 13.35ZM6.37952 9.37693C7.21628 9.37693 7.92718 9.08441 8.51222 8.49936C9.09726 7.91432 9.38979 7.20342 9.38979 6.36666C9.38979 5.5188 9.10004 4.79957 8.52055 4.20897C7.94106 3.61837 7.22739 3.32306 6.37952 3.32306C5.53165 3.32306 4.81242 3.61837 4.22182 4.20897C3.63123 4.79957 3.33594 5.5188 3.33594 6.36666C3.33594 7.21453 3.63123 7.92821 4.22182 8.5077C4.81242 9.08719 5.53165 9.37693 6.37952 9.37693Z" fill="#74807F"/>
  </g>
</svg>