<svg xmlns="http://www.w3.org/2000/svg" width="16" height="16" viewBox="0 0 16 16" fill="none">
  <mask id="mask0_526_129" style="mask-type:alpha" maskUnits="userSpaceOnUse" x="0" y="0" width="16" height="16">
    <rect width="16" height="16" fill="#D9D9D9"/>
  </mask>
  <g mask="url(#mask0_526_129)">
    <path d="M6.71538 13.4987C5.62478 13.2192 4.73291 12.6329 4.03975 11.7397C3.34658 10.8466 3 9.82223 3 8.66667C3 8.11197 3.0906 7.57522 3.2718 7.05642C3.453 6.53762 3.70941 6.05557 4.04103 5.61027C4.13333 5.48464 4.25876 5.41733 4.4173 5.40835C4.57584 5.39938 4.7158 5.45557 4.83717 5.57694C4.92948 5.66925 4.97734 5.77908 4.98075 5.90642C4.98417 6.03377 4.94528 6.15598 4.86408 6.27307C4.59401 6.61068 4.39358 6.98526 4.2628 7.39679C4.13203 7.80833 4.06665 8.23163 4.06665 8.66667C4.06665 9.55044 4.32392 10.3383 4.83845 11.0301C5.35298 11.722 6.02521 12.1906 6.85512 12.4359C6.97648 12.4786 7.08097 12.5573 7.16858 12.6718C7.25618 12.7863 7.29998 12.9043 7.29998 13.0256C7.29998 13.1923 7.24251 13.3235 7.12755 13.4192C7.01259 13.5149 6.87521 13.5414 6.71538 13.4987ZM9.28458 13.5115C9.12476 13.5543 8.98737 13.5288 8.87242 13.4352C8.75746 13.3417 8.69998 13.2115 8.69998 13.0449C8.69998 12.9192 8.74378 12.7991 8.83138 12.6846C8.91899 12.5701 9.02348 12.4893 9.14485 12.4423C9.97049 12.1799 10.6416 11.7049 11.1583 11.0173C11.675 10.3297 11.9333 9.54616 11.9333 8.66667C11.9333 7.56667 11.5555 6.63612 10.8 5.87501C10.0444 5.11389 9.12221 4.73334 8.03332 4.73334H7.83073L8.31282 5.21541C8.42051 5.32309 8.47435 5.44574 8.47435 5.58335C8.47435 5.72095 8.42051 5.8436 8.31282 5.95129C8.19402 6.07009 8.06581 6.12949 7.9282 6.12949C7.7906 6.12949 7.66796 6.07009 7.56027 5.95129L6.24745 4.65514C6.17395 4.58164 6.1216 4.50749 6.0904 4.4327C6.0592 4.35792 6.0436 4.28035 6.0436 4.20002C6.0436 4.11968 6.0592 4.04211 6.0904 3.96732C6.1216 3.89254 6.17395 3.8184 6.24745 3.74489L7.56027 2.43207C7.66796 2.32438 7.7906 2.27054 7.9282 2.27054C8.06581 2.27054 8.19402 2.32438 8.31282 2.43207C8.42051 2.55087 8.47435 2.67908 8.47435 2.81669C8.47435 2.95429 8.42051 3.07693 8.31282 3.18462L7.83073 3.66669H8.03332C9.42818 3.66669 10.6047 4.15131 11.5628 5.12054C12.5209 6.08976 13 7.27181 13 8.66667C13 9.82223 12.6523 10.8444 11.957 11.7333C11.2617 12.6222 10.3709 13.2149 9.28458 13.5115Z" fill="white" fill-opacity="0.6"/>
  </g>
</svg>