<?xml version="1.0" encoding="UTF-8" standalone="no"?>
<svg
   xmlns:dc="http://purl.org/dc/elements/1.1/"
   xmlns:cc="http://creativecommons.org/ns#"
   xmlns:rdf="http://www.w3.org/1999/02/22-rdf-syntax-ns#"
   xmlns:svg="http://www.w3.org/2000/svg"
   xmlns="http://www.w3.org/2000/svg"
   xmlns:xlink="http://www.w3.org/1999/xlink"
   width="105.83334mm"
   height="105.83334mm"
   viewBox="0 0 105.83334 105.83334"
   version="1.1"
   id="svg8">
  <defs
     id="defs2"><linearGradient
   id="linearGradient3505">
  <stop
     style="stop-color:#158fd8;stop-opacity:1"
     offset="0"
     id="stop3501" />
  <stop
     style="stop-color:#72cef1;stop-opacity:1"
     offset="0.48742399"
     id="stop3509" />
  <stop
     style="stop-color:#6ae2fe;stop-opacity:1"
     offset="1"
     id="stop3503" />
</linearGradient>
<linearGradient
   id="linearGradient3461">
  <stop
     style="stop-color:#a1792d;stop-opacity:1"
     offset="0"
     id="stop3457" />
  <stop
     style="stop-color:#ecd275;stop-opacity:1"
     offset="0.49466771"
     id="stop3465" />
  <stop
     style="stop-color:#9d773a;stop-opacity:1"
     offset="1"
     id="stop3459" />
</linearGradient>

	
	
	
	
	
	
	
	
	
<linearGradient
   xlink:href="#linearGradient3461"
   id="linearGradient3463"
   x1="85.023445"
   y1="33.813168"
   x2="85.766678"
   y2="107.68693"
   gradientUnits="userSpaceOnUse"
   gradientTransform="matrix(0.86202584,0,0,0.85528311,13.869196,10.238727)" />
<linearGradient
   xlink:href="#linearGradient3505"
   id="linearGradient3507"
   x1="153.43227"
   y1="17.964314"
   x2="259.26562"
   y2="123.79765"
   gradientUnits="userSpaceOnUse"
   gradientTransform="translate(-105.83336)" />
</defs>
  <metadata
     id="metadata5">
    <rdf:RDF>
      <cc:Work
         rdf:about="">
        <dc:format>image/svg+xml</dc:format>
        <dc:type
           rdf:resource="http://purl.org/dc/dcmitype/StillImage" />
        <dc:title></dc:title>
      </cc:Work>
    </rdf:RDF>
  </metadata>
  <g
     id="layer1"
     transform="translate(-47.598923,-17.964314)">
    <rect
       style="fill:url(#linearGradient3507);fill-opacity:1;stroke:none;stroke-width:0.865;stroke-linejoin:round;paint-order:stroke fill markers"
       id="rect3411"
       width="105.83334"
       height="105.83334"
       x="47.598907"
       y="17.964314" />
    <text
       xml:space="preserve"
       style="font-size:4.23333px;line-height:1.25;font-family:Intel;-inkscape-font-specification:Intel;letter-spacing:0px;word-spacing:0px;stroke-width:0.264583"
       x="22.572268"
       y="244.56241"
       id="text881"><tspan
         id="tspan879"
         x="22.572268"
         y="244.56241"
         style="stroke-width:0.264583" /></text>
    <path
       id="_x31_"
       d="m 101.32012,56.408197 0.0668,-3.351954 c 1.98595,-0.04302 9.66398,-0.08365 10.41112,-0.01948 0,0 1.18204,-12.762496 1.24594,-13.749385 -3.92931,0.107198 -7.45286,-0.02163 -10.59218,0.02139 -3.139093,0.06417 -5.851374,-0.150221 -8.157423,-0.150221 -2.669697,0.06441 -5.040102,0.06441 -7.132748,0 0.149286,7.981154 0.27752,15.747431 0.362691,22.398474 0.08565,6.65056 0.149525,12.378888 0.192349,17.228004 0.04306,5.620649 0.08565,23.556511 0.08565,23.556511 l 14.115721,-2.981818 c -0.10694,-2.939521 -0.17082,-11.092055 -0.19234,-13.730888 -0.0213,-2.638834 -0.0643,-6.736607 -0.12824,-9.096871 1.83667,-0.04302 2.75486,-0.08556 4.05754,-0.08556 0,0 3.7539,-0.14565 4.43716,-0.08148 -0.0639,-1.995168 0.22867,-13.103433 0.22867,-13.103433 -3.03239,0.106957 -3.74743,0.03353 -5.54102,0.03353 h -3.41709 c -0.0426,-1.73775 -0.0638,-2.059822 -0.0426,-3.432958 v -3.453869 z"
       style="fill:#ffffff;fill-opacity:1;stroke-width:0.239798" />
  </g>
</svg>
