<svg xmlns="http://www.w3.org/2000/svg" viewBox="0 0 464.977 181.089"><g style="clip-rule:evenodd;fill-rule:evenodd;stroke-linejoin:round;stroke-miterlimit:2"><path d="m957.827 387.679 73.238 24.389a1.99 1.99 0 0 1 1.357 2.023l-4.835 71.525a1.987 1.987 0 0 0 .567 1.53l21.737 22.103c.718.731.765 1.887.108 2.673l-29.239 34.992a1.992 1.992 0 0 1-2.279.567l-17.219-7.022a1.991 1.991 0 0 0-2.659 1.273l-8.065 26.974a1.99 1.99 0 0 1-1.322 1.332l-30.804 9.467a1.99 1.99 0 0 1-1.169 0l-30.804-9.467a1.987 1.987 0 0 1-1.322-1.332l-8.065-26.974a1.991 1.991 0 0 0-2.659-1.273l-17.219 7.022a1.992 1.992 0 0 1-2.279-.567l-29.239-34.992a1.992 1.992 0 0 1 .108-2.673l21.737-22.103c.399-.405.606-.962.567-1.53l-4.835-71.525a1.99 1.99 0 0 1 1.357-2.023zm-40.517 92.216c-10.672 0-19.337 8.665-19.337 19.337 0 10.673 8.665 19.337 19.337 19.337s19.337-8.664 19.337-19.337c0-10.672-8.665-19.337-19.337-19.337zm81.035 0c-10.672 0-19.337 8.665-19.337 19.337 0 10.673 8.665 19.337 19.337 19.337s19.337-8.664 19.337-19.337c0-10.672-8.665-19.337-19.337-19.337zm-41.364 40.24-10.993 16.059a1.49 1.49 0 0 0 .312 2.016l4.05 3.166a1.492 1.492 0 0 0 2.017-.168l4.947-5.396a.696.696 0 0 1 1.027 0l4.948 5.396a1.49 1.49 0 0 0 2.016.168l4.05-3.166a1.49 1.49 0 0 0 .312-2.016l-10.992-16.059a1.027 1.027 0 0 0-1.694 0zm-86.802-51.325a2.658 2.658 0 0 1-2.652 2.837H127.138c-.785 0-1.53-.346-2.035-.947l-45.162-53.696a2.66 2.66 0 0 1 2.034-4.369h781.923a2.658 2.658 0 0 1 2.65 2.49c.004.034.006.069.009.103zm.106 74.776a2.66 2.66 0 0 1-2.04 4.362H663.659a2.66 2.66 0 0 1-2.034-.947l-16.847-20.03a2.66 2.66 0 0 1 2.035-4.369h205.759a.38.38 0 0 1 .293.137zm-28.316-34.043a2.66 2.66 0 0 1-1.895.794H159.679a2.655 2.655 0 0 1-2.034-.947l-16.847-20.03a2.657 2.657 0 0 1 2.034-4.369h716.94a2.659 2.659 0 0 1 1.896 4.522zm-432.323 17.428a2.657 2.657 0 0 1 2.034-4.369h204.987a2.66 2.66 0 0 1 2.034.947l16.847 20.03a2.66 2.66 0 0 1-2.034 4.369H428.527a2.655 2.655 0 0 1-2.034-.947zm635.83-58.161 3.622-53.582c0-.034.01-.069.01-.103a2.658 2.658 0 0 1 2.65-2.49h781.923a2.66 2.66 0 0 1 2.034 4.369l-45.162 53.696a2.657 2.657 0 0 1-2.035.947h-740.389a2.658 2.658 0 0 1-2.652-2.837zm-.106 74.776 17.42-20.847a.38.38 0 0 1 .293-.137h205.759a2.658 2.658 0 0 1 2.035 4.369l-16.847 20.03a2.66 2.66 0 0 1-2.034.947H1047.41a2.658 2.658 0 0 1-2.04-4.362zm28.316-34.043-19.699-20.03a2.658 2.658 0 0 1 1.895-4.522h716.941a2.658 2.658 0 0 1 2.034 4.369l-16.847 20.03a2.655 2.655 0 0 1-2.034.947h-680.395a2.66 2.66 0 0 1-1.895-.794zm432.323 17.428-16.847 20.03a2.655 2.655 0 0 1-2.034.947h-204.987a2.657 2.657 0 0 1-2.034-4.369l16.847-20.03a2.66 2.66 0 0 1 2.034-.947h204.987a2.658 2.658 0 0 1 2.034 4.369z" style="fill:#ffe900" transform="matrix(.26458 0 0 .26458 -20.986 -8.905)"/><path d="M710.887 178.863v-71.977H592.281a4.724 4.724 0 0 1-4.725-4.725V38.383a4.725 4.725 0 0 1 4.725-4.725h730.805a4.725 4.725 0 0 1 4.725 4.725v63.778a4.725 4.725 0 0 1-4.725 4.725H1204.48v71.977h-199.051v-71.977h-95.491v71.977zm493.593 393.838v72.16h118.606l3.341 1.384 1.384 3.341v63.778l-1.384 3.341-3.341 1.384H592.281l-3.341-1.384-1.384-3.341v-63.778l1.384-3.341 3.341-1.384h118.606v-72.16h184.614l14.437 18.499v53.661h95.491V591.2l14.437-18.499zM138.392 308.35v49.141a5.684 5.684 0 0 1-5.683 5.683H85a5.683 5.683 0 0 1-5.683-5.683V210.378A5.683 5.683 0 0 1 85 204.695h47.709a5.684 5.684 0 0 1 5.683 5.683v44.558h65.029v-44.558a5.684 5.684 0 0 1 5.683-5.683h47.709a5.683 5.683 0 0 1 5.683 5.683v147.113a5.683 5.683 0 0 1-5.683 5.683h-47.709a5.684 5.684 0 0 1-5.683-5.683V308.35Zm1385.96 8.814v40.327a5.684 5.684 0 0 1-5.683 5.683h-47.708a5.683 5.683 0 0 1-5.684-5.683V210.378a5.683 5.683 0 0 1 5.684-5.683h139.357a5.68 5.68 0 0 1 4.406 2.093l24.478 30.035a5.684 5.684 0 0 1 1.277 3.59v33.74a5.687 5.687 0 0 1-1.498 3.846l-16.909 18.399 17.046 19.958a5.688 5.688 0 0 1 1.361 3.691v37.444a5.688 5.688 0 0 1-1.664 4.019 5.688 5.688 0 0 1-4.019 1.664h-47.708a5.686 5.686 0 0 1-5.684-5.683v-40.327zm0-70.293v28.117h57.052v-28.117zm254.861 54.228h-90.001a5.683 5.683 0 0 1-4.207-1.862l-25.441-28.014a5.68 5.68 0 0 1-1.476-3.82v-26.786c0-1.343.476-2.643 1.343-3.669l25.562-30.239a5.686 5.686 0 0 1 4.341-2.014h101.748c1.647 0 3.213.714 4.292 1.958l25.991 29.943a5.677 5.677 0 0 1 1.392 3.725v.867a5.684 5.684 0 0 1-5.683 5.683h-101.491v12.052h88.854c1.653 0 3.225.72 4.304 1.972l26.588 30.835a5.683 5.683 0 0 1 1.38 3.711v29.922a5.684 5.684 0 0 1-1.31 3.629l-26.654 32.128a5.683 5.683 0 0 1-4.374 2.054h-114.163c-1.631 0-3.183-.7-4.262-1.923l-26.437-29.969a5.684 5.684 0 0 1-1.421-3.76v-4.609a5.683 5.683 0 0 1 5.683-5.683h115.442zm-1334.13 56.392a5.683 5.683 0 0 1-5.683 5.683H292.408a5.683 5.683 0 0 1-5.683-5.683V210.378a5.683 5.683 0 0 1 5.683-5.683H439.4a5.683 5.683 0 0 1 5.683 5.683v31.894a5.683 5.683 0 0 1-5.683 5.683h-93.6v11.212h86.029a5.683 5.683 0 0 1 5.683 5.683v31.893a5.684 5.684 0 0 1-5.683 5.684H345.8v14.526h93.6a5.684 5.684 0 0 1 5.683 5.683zm999.675 0a5.683 5.683 0 0 1-5.683 5.683h-146.992a5.683 5.683 0 0 1-5.683-5.683V210.378a5.683 5.683 0 0 1 5.683-5.683h146.992a5.683 5.683 0 0 1 5.683 5.683v31.894a5.683 5.683 0 0 1-5.683 5.683h-93.6v11.212h86.028a5.683 5.683 0 0 1 5.684 5.683v31.893a5.684 5.684 0 0 1-5.684 5.684h-86.028v14.526h93.6a5.684 5.684 0 0 1 5.683 5.683zm-831.725 0a5.688 5.688 0 0 1-1.664 4.019 5.688 5.688 0 0 1-4.019 1.664H474.98a5.683 5.683 0 0 1-5.683-5.683V210.378a5.683 5.683 0 0 1 5.683-5.683h47.709a5.685 5.685 0 0 1 5.683 5.683v106.575h78.978a5.683 5.683 0 0 1 5.683 5.683zm161.686 0a5.684 5.684 0 0 1-5.684 5.683H636.666a5.683 5.683 0 0 1-5.684-5.683V210.378a5.683 5.683 0 0 1 5.684-5.683h47.708c1.507 0 2.953.599 4.019 1.664a5.688 5.688 0 0 1 1.664 4.019v106.575h78.978a5.683 5.683 0 0 1 5.684 5.683zM984.506 327.1c0 1.292-.44 2.545-1.248 3.554l-24.354 30.391a5.683 5.683 0 0 1-4.435 2.129H798.351a5.683 5.683 0 0 1-5.683-5.683V210.378a5.683 5.683 0 0 1 5.683-5.683h156.178c1.69 0 3.293.753 4.373 2.054l24.295 29.273a5.685 5.685 0 0 1 1.309 3.629zm-132.763-76.183v66.036h73.688v-66.036zm207.441-46.222a5.683 5.683 0 0 1 5.683 5.683v147.113a5.683 5.683 0 0 1-5.683 5.683h-47.709a5.683 5.683 0 0 1-5.683-5.683V210.378a5.683 5.683 0 0 1 5.683-5.683zm147.843 155.152a5.683 5.683 0 0 1-5.172 3.327h-53.993a5.683 5.683 0 0 1-5.172-3.327l-67.027-147.113a5.684 5.684 0 0 1 5.172-8.039h49.771a5.682 5.682 0 0 1 5.266 3.546l38.986 96.077 38.987-96.077a5.682 5.682 0 0 1 5.266-3.546h49.771a5.684 5.684 0 0 1 5.172 8.039z" style="fill:#ffe900" transform="matrix(.26458 0 0 .26458 -20.986 -8.905)"/></g></svg>